<svg xmlns="http://www.w3.org/2000/svg" viewBox="0 0 80 80" width="80" height="80">
  <defs>
    <clipPath id="c-jo"><circle cx="40" cy="40" r="40"/></clipPath>
  </defs>
  <circle cx="40" cy="40" r="40" fill="#1E4A40"/>
  <g clip-path="url(#c-jo)">
    <ellipse cx="40" cy="82" rx="30" ry="20" fill="#0A1A14"/>
    <path d="M31,68 Q40,61 49,68 L49,82 L31,82Z" fill="#E8E8E8"/>
    <path d="M38,64 L40,70 L42,64 Q40,62 38,64Z" fill="#3A6A8A"/>
    <rect x="34" y="52" width="12" height="18" rx="4" fill="#5A3010"/>
    <ellipse cx="40" cy="38" rx="16" ry="18" fill="#5A3010"/>
    <ellipse cx="40" cy="22" rx="16" ry="7" fill="#1A0800"/>
    <ellipse cx="24" cy="40" rx="3" ry="4" fill="#4A2808"/>
    <ellipse cx="56" cy="40" rx="3" ry="4" fill="#4A2808"/>
    <ellipse cx="33" cy="36" rx="3" ry="2.5" fill="#0A0500"/>
    <ellipse cx="47" cy="36" rx="3" ry="2.5" fill="#0A0500"/>
    <circle cx="34" cy="35.5" r="1" fill="#fff" opacity="0.5"/>
    <circle cx="48" cy="35.5" r="1" fill="#fff" opacity="0.5"/>
    <path d="M29.5,31.5 Q33,30 36.5,31.5" stroke="#0A0500" stroke-width="1.8" fill="none"/>
    <path d="M43.5,31.5 Q47,30 50.5,31.5" stroke="#0A0500" stroke-width="1.8" fill="none"/>
    <ellipse cx="40" cy="43" rx="3.5" ry="2" fill="#4A2808" opacity="0.6"/>
    <path d="M33,50 Q40,55 47,50 Q40,53 33,50Z" fill="#7A4030"/>
    <path d="M34,50 Q40,52 46,50" stroke="#5A2820" stroke-width="1" fill="none"/>
  </g>
</svg>
