<svg xmlns="http://www.w3.org/2000/svg" viewBox="0 0 80 80" width="80" height="80">
  <defs>
    <clipPath id="c-mt"><circle cx="40" cy="40" r="40"/></clipPath>
  </defs>
  <circle cx="40" cy="40" r="40" fill="#2D3B6B"/>
  <g clip-path="url(#c-mt)">
    <ellipse cx="40" cy="82" rx="30" ry="20" fill="#1A2040"/>
    <path d="M30,67 Q40,60 50,67 L50,82 L30,82Z" fill="#F5E8D8"/>
    <rect x="34" y="52" width="12" height="17" rx="4" fill="#F0D0A8"/>
    <ellipse cx="40" cy="37" rx="16" ry="18" fill="#F0D0A8"/>
    <path d="M24,30 Q22,50 25,70 L32,70 L30,38Z" fill="#0A0A0A"/>
    <path d="M56,30 Q58,50 55,70 L48,70 L50,38Z" fill="#0A0A0A"/>
    <ellipse cx="40" cy="21" rx="17" ry="9" fill="#0A0A0A"/>
    <path d="M23,25 Q40,16 57,25 L57,30 Q40,22 23,30Z" fill="#0A0A0A"/>
    <ellipse cx="24.5" cy="39" rx="2.5" ry="3.5" fill="#E0C098"/>
    <ellipse cx="55.5" cy="39" rx="2.5" ry="3.5" fill="#E0C098"/>
    <path d="M29,35 Q33,32 37,35 Q33,37.5 29,35Z" fill="#0A0A0A"/>
    <path d="M43,35 Q47,32 51,35 Q47,37.5 43,35Z" fill="#0A0A0A"/>
    <circle cx="33" cy="34.5" r="0.9" fill="#fff" opacity="0.7"/>
    <circle cx="47" cy="34.5" r="0.9" fill="#fff" opacity="0.7"/>
    <line x1="29" y1="31" x2="37" y2="31" stroke="#0A0A0A" stroke-width="1.5"/>
    <line x1="43" y1="31" x2="51" y2="31" stroke="#0A0A0A" stroke-width="1.5"/>
    <path d="M39,40 L38,45 Q40,47 42,45 L41,40" stroke="#C8A888" stroke-width="1" fill="none"/>
    <path d="M34,50 Q40,54 46,50 Q40,52.5 34,50Z" fill="#D07070"/>
    <path d="M34,50 Q40,48 46,50" fill="#E08080" opacity="0.6"/>
  </g>
</svg>
