<svg xmlns="http://www.w3.org/2000/svg" viewBox="0 0 80 80" width="80" height="80">
  <defs>
    <clipPath id="c-rf"><circle cx="40" cy="40" r="40"/></clipPath>
  </defs>
  <circle cx="40" cy="40" r="40" fill="#3A4255"/>
  <g clip-path="url(#c-rf)">
    <ellipse cx="40" cy="82" rx="30" ry="20" fill="#161820"/>
    <path d="M31,67 Q40,60 49,67 L49,82 L31,82Z" fill="#F0F0F0"/>
    <path d="M38.5,63 L40,72 L41.5,63 Q40,61 38.5,63Z" fill="#8A2020"/>
    <rect x="34" y="52" width="12" height="17" rx="3" fill="#E8C0A0"/>
    <ellipse cx="40" cy="37" rx="17" ry="18" fill="#E8C0A0"/>
    <path d="M24,25 Q40,15 56,25 L56,28 Q40,18 24,28Z" fill="#B0B0A8"/>
    <path d="M24,28 Q22,35 24,42 Q26,38 26,33Z" fill="#B0B0A8"/>
    <path d="M56,28 Q58,35 56,42 Q54,38 54,33Z" fill="#B0B0A8"/>
    <ellipse cx="23" cy="40" rx="3" ry="4" fill="#D8B090"/>
    <ellipse cx="57" cy="40" rx="3" ry="4" fill="#D8B090"/>
    <ellipse cx="33" cy="36" rx="3.5" ry="2.5" fill="#2A3040"/>
    <ellipse cx="47" cy="36" rx="3.5" ry="2.5" fill="#2A3040"/>
    <circle cx="34" cy="35.5" r="1" fill="#fff" opacity="0.5"/>
    <circle cx="48" cy="35.5" r="1" fill="#fff" opacity="0.5"/>
    <rect x="28" y="32.5" width="11" height="7" rx="3" fill="none" stroke="#6A6A6A" stroke-width="1.2"/>
    <rect x="41" y="32.5" width="11" height="7" rx="3" fill="none" stroke="#6A6A6A" stroke-width="1.2"/>
    <line x1="39" y1="36" x2="41" y2="36" stroke="#6A6A6A" stroke-width="1.2"/>
    <path d="M29,31 Q33,29.5 37,31" stroke="#A0A098" stroke-width="1.5" fill="none"/>
    <path d="M43,31 Q47,29.5 51,31" stroke="#A0A098" stroke-width="1.5" fill="none"/>
    <path d="M39,41 L38,46 Q40,48 42,46 L41,41" stroke="#C8A080" stroke-width="1" fill="none"/>
    <path d="M34,51 Q40,54 46,51" stroke="#B08070" stroke-width="1.8" fill="none"/>
  </g>
</svg>
