<svg xmlns="http://www.w3.org/2000/svg" viewBox="0 0 80 80" width="80" height="80">
  <defs>
    <clipPath id="c-sa"><circle cx="40" cy="40" r="40"/></clipPath>
  </defs>
  <circle cx="40" cy="40" r="40" fill="#2E5040"/>
  <g clip-path="url(#c-sa)">
    <ellipse cx="40" cy="82" rx="30" ry="20" fill="#1A2A20"/>
    <path d="M30,67 Q40,60 50,67 L50,82 L30,82Z" fill="#E8D8C8"/>
    <rect x="34" y="52" width="12" height="17" rx="4" fill="#C8855E"/>
    <ellipse cx="40" cy="37" rx="16" ry="18" fill="#C8855E"/>
    <path d="M23,30 Q18,42 20,58 Q22,65 28,70 L33,70 L29,55 Q26,45 28,33Z" fill="#1A0A05"/>
    <path d="M57,30 Q62,42 60,58 Q58,65 52,70 L47,70 L51,55 Q54,45 52,33Z" fill="#1A0A05"/>
    <ellipse cx="40" cy="21" rx="17" ry="10" fill="#1A0A05"/>
    <path d="M24,38 Q22,45 24,52" stroke="#3A1A10" stroke-width="2" fill="none"/>
    <path d="M56,38 Q58,45 56,52" stroke="#3A1A10" stroke-width="2" fill="none"/>
    <ellipse cx="24" cy="40" rx="2.5" ry="3.5" fill="#B87050"/>
    <ellipse cx="56" cy="40" rx="2.5" ry="3.5" fill="#B87050"/>
    <circle cx="24" cy="44" r="1.5" fill="#C0A030"/>
    <circle cx="56" cy="44" r="1.5" fill="#C0A030"/>
    <ellipse cx="33" cy="36" rx="3.5" ry="2.5" fill="#1A0800"/>
    <ellipse cx="47" cy="36" rx="3.5" ry="2.5" fill="#1A0800"/>
    <circle cx="34" cy="35.5" r="1" fill="#fff" opacity="0.6"/>
    <circle cx="48" cy="35.5" r="1" fill="#fff" opacity="0.6"/>
    <path d="M29,31 Q33,28.5 37,31" stroke="#1A0800" stroke-width="1.8" fill="none"/>
    <path d="M43,31 Q47,28.5 51,31" stroke="#1A0800" stroke-width="1.8" fill="none"/>
    <path d="M39,40 L38,46 Q40,47.5 42,46 L41,40" stroke="#A86040" stroke-width="1" fill="none"/>
    <path d="M33,50 Q40,55 47,50 Q40,53 33,50Z" fill="#C05848"/>
    <path d="M33,50 Q40,48 47,50" fill="#E07060" opacity="0.7"/>
  </g>
</svg>
