<?xml version="1.0" encoding="UTF-8"?>
<svg id="Layer_1" data-name="Layer 1" xmlns="http://www.w3.org/2000/svg" viewBox="0 0 464.07 122.71">
  <defs>
    <style>.cls-1{fill:#fff;}</style>
  </defs>
  <g>
    <path class="cls-1" d="M66.28,73.86c16.45-16.06,13.76-42.7,24.91-61.91l-.03,61.05c-.01,21.77-25.88,41.25-45.62,49.72C25.64,114.16.22,95.08.16,72.99l-.16-60.65,37.4.42-11.2,1.25-22.41,1.83.15,57.88c.05,18.94,24.72,37.79,41.6,45.35l.03-37.97c7.83.59,14.88-1.71,20.71-7.25Z"/>
    <path class="cls-1" d="M29.62,88.3l1.87-11.56c-9.95-6.76-14.47-18.02-12.13-29.95C25.42,15.93,65.8,1.46,95.76,0c-11.77,4.71-21.31,11.56-29.93,21.01-18.98,20.79-30.43,46.81-34.63,74.64-1.73-1.94-2-4.81-1.59-7.34Z"/>
  </g>
  <g>
    <path class="cls-1" d="M407.36,54.23l10.57-.13v26.78c5.52.27,11.51.5,17.02-.44,11.58-1.98,18.55-10.92,18.28-22.38-.35-14.57-11.43-20.06-25.67-20.1l-20.05-.06-.13-8.51,24.67.18c11.39.08,24.44,5.76,29.3,16.41,5.5,12.03,2.53,26.7-7.61,35.28-11.71,9.91-30.84,9.17-46.3,7.64l-.09-34.69Z"/>
    <path class="cls-1" d="M176.07,80.2l-.02-21.92,10.51-.28-.03,27.83c-10.57,3.97-21.67,5.1-32.6,2.89-12.99-2.62-21.96-12.37-23.55-24.54-1.71-13.07,4.76-24.89,16.87-30.69,11.61-5.56,24.86-5.37,37.33-.78l-2.66,8.52c-8.99-3.65-18.51-4.28-27.5-1.15s-13.37,10.57-13.4,19.45c-.03,10.07,5.97,18.21,16.02,20.62,6.06,1.45,12.48.94,19.03.04Z"/>
    <polygon class="cls-1" points="298 62.76 297.99 80.38 326.23 80.41 326.18 89.19 287.48 89.17 287.49 29.97 324.76 29.93 324.84 38.87 297.97 38.83 297.98 54 323.31 54.02 323.35 62.76 298 62.76"/>
    <polygon class="cls-1" points="273.97 80.29 274.08 89.16 235.61 89.18 235.63 30.19 246.23 30.17 246.21 80.32 273.97 80.29"/>
    <rect class="cls-1" x="204.88" y="29.87" width="10.57" height="59.37"/>
    <path class="cls-1" d="M377.14,71.06h-21.68s-6.74,18.17-6.74,18.17l-10.43-.25,22.85-58.77,10.6.06,23.12,58.63-10.63.22-7.09-18.06ZM374.42,62.72l-8.2-21.09-8.13,21.14,16.32-.05Z"/>
  </g>
</svg>
