<?xml version="1.0" encoding="UTF-8"?>
<svg id="Layer_1" xmlns="http://www.w3.org/2000/svg" version="1.1" viewBox="0 0 924.2 218.67">
  <defs>
    <style>.st0{fill:#333132;}</style>
  </defs>
  <g>
    <path class="st0" d="M17.66,103.8c-9.74,0-17.66,7.92-17.66,17.66s7.92,17.66,17.66,17.66,17.66-7.92,17.66-17.66-7.92-17.66-17.66-17.66Z"/>
    <path class="st0" d="M132.8,65.15c8.44,4.87,19.26,1.97,24.13-6.46s1.97-19.26-6.47-24.13c-8.43-4.87-19.25-1.97-24.13,6.47-4.87,8.44-1.97,19.26,6.46,24.13Z"/>
    <path class="st0" d="M132.8,177.74c-8.43,4.87-11.33,15.69-6.46,24.13s15.69,11.34,24.13,6.47c8.44-4.87,11.34-15.69,6.47-24.13s-15.69-11.33-24.13-6.46Z"/>
    <path class="st0" d="M205,108.39h-.01v-.03c-61.79-18.75-98.56-39.99-145.71-84.14l-22.64,13.11c14.66,62.9,14.66,105.36,0,168.26l22.64,13.08c47.15-44.15,83.92-65.38,145.72-84.14v-.03s0,0,0,0v-26.1ZM70.91,172.38c5.31-35.24,5.31-66.63,0-101.87,27.87,22.22,55.05,37.91,88.23,50.94-33.18,13.02-60.36,28.71-88.22,50.93Z"/>
  </g>
  <g>
    <path class="st0" d="M343.01,180.65c-14.59,0-21.73-8.76-21.73-26.6v-79.79h42.49v-29.84h-42.49V0l-33.74,19.47v24.94h-27.24v29.84h27.24v77.85c0,38.6,21.09,58.39,53.52,58.39,9.41,0,18.17-1.94,26.28-5.84l-8.76-28.54c-4.87,2.92-10.06,4.54-15.57,4.54Z"/>
    <path class="st0" d="M608.67,41.81c-31.14,0-54.82,17.52-61.63,45.09-.97,3.73-.74,6.48-.74,6.48h31.55c5.51-14.6,15.57-21.73,30.49-21.73,18.49,0,32.17,9.08,32.17,28.54v7.14h-28.6c-42.5,0-70.71,20.11-70.71,53.52s21.41,49.63,50.28,49.63c22.38,0,39.25-8.11,50.6-24v21.41h31.79s0,0,0,0v-101.53c0-43.14-21.74-64.55-65.2-64.55ZM640.52,139.13c0,13.3-4.6,23.35-13.35,30.81-8.44,7.13-18.49,10.7-29.84,10.7-13.3,0-20.43-8.11-20.43-19.79,0-15.57,12.97-25.3,33.73-25.3h29.9v3.57Z"/>
    <path class="st0" d="M921.83,84.94h0c-1.61-8.03-4.6-15.32-8.91-21.68-4.36-6.43-10.42-11.66-17.99-15.56-7.57-3.89-17.33-5.86-29.03-5.86-9.25,0-18.5,2.39-27.5,7.1-7.67,4.01-13.95,9.79-18.71,17.2-4.57-7.35-10.19-13.11-16.75-17.11-7.82-4.77-17.55-7.19-28.9-7.19-6.88,0-13.26,1.04-18.98,3.1-5.64,2.02-10.63,4.52-14.84,7.42-4.21,2.92-7.71,6.04-10.42,9.3-.05.06-.1.12-.14.17v-17.42h-31.79v163.48h33.36v-90.81c0-7.88.99-14.78,2.93-20.52,1.93-5.68,4.54-10.38,7.76-13.98,3.2-3.58,6.96-6.29,11.18-8.07,4.25-1.8,8.71-2.71,13.24-2.71,6.23,0,11.19,1.06,14.75,3.16,3.52,2.08,6.27,5.02,8.18,8.73,2,3.9,3.35,8.62,4.03,14.01.7,5.61,1.06,11.92,1.06,18.76v91.42h33.36v-94.81c0-12.29,2.73-22.43,8.12-30.14,5.17-7.39,14.04-11.13,26.37-11.13,6.24,0,11.27,1.07,14.93,3.17,3.66,2.11,6.53,4.93,8.52,8.38,2.06,3.56,3.45,7.78,4.12,12.54.7,5.01,1.05,10.28,1.05,15.64v96.35h33.36v-98.51c0-8.35-.8-16.58-2.36-24.44Z"/>
    <path class="st0" d="M450.24,41.82c-53.85,0-76.22,45.41-76.22,84.34s22.38,84.33,76.22,84.33c34.32,0,53.31-12.72,69.34-41.71h0s-26.66-15.4-26.66-15.4c-8.16,17.01-24.61,27.27-42.67,27.27-25.62,0-40.54-19.46-40.54-45.09h115.8v-14.6c0-36.66-23.03-79.15-75.26-79.15ZM410.34,107.34c3.89-21.08,18.17-35.68,39.9-35.68,23.03,0,36.66,15.24,39.58,35.68h-79.48Z"/>
  </g>
</svg>
