<?xml version="1.0" encoding="UTF-8"?>
<svg id="Layer_1" data-name="Layer 1" xmlns="http://www.w3.org/2000/svg" viewBox="0 0 1820.58 294.13">
  <defs>
    <style>
      .cls-1 {
        fill: #231f20;
      }
    </style>
  </defs>
  <g>
    <g>
      <path class="cls-1" d="M408.46,251.76c-17.44,0-25.98-10.48-25.98-31.82v-95.45h50.84v-35.68h-50.84v-53.09l-40.36,23.27v29.82h-32.59v35.68h32.59v93.1c0,46.16,25.21,69.82,64.02,69.82,11.25,0,21.73-2.32,31.43-7l-10.48-34.14c-5.83,3.48-12.02,5.45-18.63,5.45v.03Z"/>
      <path class="cls-1" d="M726.2,85.72c-37.23,0-65.57,20.95-73.72,53.93-1.16,4.45-.87,7.77-.87,7.77h37.75c6.61-17.47,18.63-25.98,36.46-25.98,22.11,0,38.49,10.86,38.49,34.14v8.54h-34.2c-50.84,0-84.59,24.05-84.59,64.02s25.59,59.35,60.12,59.35c26.76,0,46.93-9.7,60.51-28.72v25.59h38.04v-121.43c0-51.61-26.01-77.2-77.98-77.2h0ZM764.27,202.12c0,15.89-5.51,27.92-15.96,36.84-10.09,8.54-22.11,12.8-35.68,12.8-15.92,0-24.43-9.7-24.43-23.66,0-18.63,15.51-30.27,40.36-30.27h35.75v4.26l-.03.03Z"/>
      <path class="cls-1" d="M1100.74,137.29h0c-1.93-9.61-5.51-18.34-10.67-25.92-5.22-7.67-12.44-13.96-21.5-18.6-9.06-4.64-20.73-7-34.72-7-11.06,0-22.11,2.87-32.88,8.51-9.15,4.8-16.7,11.7-22.37,20.57-5.45-8.8-12.18-15.67-20.02-20.47-9.35-5.71-20.99-8.61-34.56-8.61-8.22,0-15.86,1.26-22.69,3.71-6.74,2.42-12.73,5.42-17.76,8.86-5.03,3.48-9.22,7.22-12.48,11.12-.06.06-.13.13-.16.19v-20.82h-38.04v195.54h39.91v-108.6c0-9.41,1.19-17.66,3.51-24.53,2.29-6.8,5.42-12.41,9.28-16.73,3.84-4.29,8.32-7.51,13.38-9.64,5.09-2.16,10.41-3.22,15.83-3.22,7.45,0,13.38,1.26,17.63,3.77,4.22,2.48,7.51,6,9.77,10.44,2.39,4.67,4,10.32,4.8,16.76.84,6.7,1.26,14.25,1.26,22.44v109.34h39.91v-113.4c0-14.7,3.26-26.82,9.7-36.04,6.19-8.83,16.79-13.31,31.53-13.31,7.45,0,13.47,1.29,17.86,3.8,4.38,2.51,7.8,5.9,10.19,10.03,2.48,4.26,4.13,9.32,4.93,14.99.84,6,1.26,12.28,1.26,18.7v115.24h39.91v-117.82c0-9.99-.97-19.82-2.84-29.24l.03-.06Z"/>
      <path class="cls-1" d="M536.69,85.72c-64.41,0-91.16,54.32-91.16,100.86s26.76,100.86,91.16,100.86c41.04,0,63.76-15.22,82.94-49.87h0l-31.88-18.44c-9.77,20.34-29.43,32.62-51.03,32.62-30.66,0-48.48-23.27-48.48-53.93h138.52v-17.47c0-43.84-27.56-94.68-90-94.68l-.06.03ZM488.98,164.08c4.64-25.21,21.73-42.68,47.71-42.68,27.56,0,43.84,18.25,47.32,42.68h-95.06.03Z"/>
    </g>
    <g>
      <path class="cls-1" d="M1299.39,222.16c.07-.19.17-.37.27-.54,9.04-14.68,16.74-28.87,23.1-42.58,6.3-13.58,11.77-27.28,16.41-41.1.14-.42.21-.83.2-1.26-.04-2.62-.35-5.98-.92-10.07-.62-4.43-1.23-8.86-1.85-13.29-.62-4.43-1.29-8.55-2.03-12.37-.37-1.91-.71-3.52-1.02-4.85-.43-1.86.6-3.72,2.39-4.35,2.47-.86,5.05-1.55,7.76-2.06,3.9-.74,7.69-1.11,11.35-1.11,6.05,0,11.52,1.01,16.41,3.03,1.72.71,2.71,2.55,2.26,4.36-3.6,14.32-8.27,28.9-14,43.75-6.13,15.88-13.11,31.7-20.96,47.45-7.85,15.76-16.43,31.27-25.74,46.53-9.08,14.88-18.75,29.18-28.99,42.89-.51.68-1.24,1.17-2.07,1.38l-12.11,3.09c-2.12.54-4.24-.87-4.56-3.04l-14.87-100.56c-.03-.18-.04-.36-.04-.54v-30.01h-1.11l-14.77,30.28c-8.12,16.99-16.38,33.79-24.74,50.41-8.11,16.09-16.22,32.25-24.32,48.46-.5,1-1.42,1.72-2.51,1.96l-14.56,3.18c-2.15.47-4.23-1.03-4.46-3.22l-16.98-160.65c-.18-1.7-1.51-3.06-3.21-3.27l-17.5-2.19c-1.85-.23-3.23-1.8-3.23-3.66v-3.93c0-1.29.65-2.48,1.75-3.15,1.31-.79,2.94-1.71,4.89-2.77,2.95-1.6,6.21-3.14,9.79-4.62,3.57-1.48,7.26-2.71,11.08-3.69,3.81-.98,7.44-1.48,10.89-1.48,5.41,0,9.54,1.29,12.37,3.88,2.83,2.58,4.49,5.97,4.99,10.16l9.95,116.43c.01.17.02.35,0,.52l-1.46,26.33h.74l11.15-26.84c.03-.08.07-.15.1-.23l59.72-120.04c.43-.86,1.17-1.52,2.08-1.84l6.89-2.43c2.2-.78,4.56.68,4.89,2.99,2.67,18.93,4.92,34.72,6.75,47.4,1.97,13.66,3.32,23.7,4.06,30.09,1.96,14.7,3.92,29.4,5.88,44.1.02.14.03.29.03.44l.11,7.9c.06,4.03,5.62,5.07,7.12,1.32l2.63-6.57Z"/>
      <path class="cls-1" d="M1365.61,208.95c0-13.05,2.02-26.65,6.06-40.81,4.04-14.15,10.23-27.14,18.56-38.96s18.74-21.54,31.24-29.17c12.5-7.63,27.08-11.45,43.74-11.45,19.11,0,33.51,5.91,43.19,17.73,9.68,11.82,14.52,29.3,14.52,52.44,0,16.25-2.33,31.82-6.99,46.71-4.66,14.9-11.15,28.01-19.48,39.33-8.33,11.33-18.38,20.37-30.14,27.14-11.77,6.77-24.75,10.16-38.96,10.16-18.87,0-33.88-6.09-45.03-18.28-11.15-12.19-16.72-30.47-16.72-54.84ZM1458.3,104.82c-12.07.25-21.91,4.17-29.54,11.77-7.63,7.6-13.66,17.03-18.09,28.31-4.43,11.27-7.51,23.4-9.23,36.39-1.72,12.99-2.58,24.87-2.58,35.65,0,14.46,3.2,26.23,9.6,35.29,6.4,9.07,15.01,13.6,25.85,13.6,8.61,0,16.31-3.24,23.08-9.74,6.77-6.5,12.55-15.07,17.36-25.74,4.8-10.66,8.49-22.73,11.08-36.21,2.59-13.48,3.88-27.08,3.88-40.81,0-14.45-2.53-26.09-7.57-34.91-5.05-8.82-12.99-13.36-23.82-13.61Z"/>
      <path class="cls-1" d="M1634.16,116.34c-.99-.51-2.17-.6-3.18-.12-5.99,2.83-12.66,8.82-19.99,17.96-7.96,9.92-15.01,23.31-21.14,40.17-.06.17-.11.35-.15.53l-21.47,99.85c-.37,1.7-1.87,2.91-3.61,2.91h-24.23c-2.34,0-4.09-2.16-3.61-4.45l32.6-154.93c.44-2.08-.97-4.1-3.07-4.41l-15.49-2.29c-1.81-.27-3.15-1.82-3.15-3.65v-3.65c0-1.46.85-2.8,2.18-3.4,7.7-3.45,15.72-6.13,24.04-8.05,8.6-1.97,16.45-3.35,23.52-4.12.81-.09,1.6.1,2.3.51l4.06,2.44c1.35.81,2.04,2.39,1.71,3.92l-9.8,46.54h1.48c7.14-16.25,15.88-29.23,26.22-38.96,10.34-9.72,21.42-14.59,33.24-14.59,3.2,0,6.4.31,9.6.92,2.45.47,4.84,1.27,7.15,2.4,1.33.65,2.09,2.09,1.96,3.56-.16,1.78-.49,3.85-.98,6.23-.74,3.57-1.79,7.2-3.14,10.89-1.36,3.69-2.83,7.2-4.43,10.53-.97,2.02-1.97,3.74-2.99,5.17s-3.04,1.86-4.63,1.03l-24.97-12.96Z"/>
      <path class="cls-1" d="M1754.08,261.02c-7.88-13.3-14.53-25.91-19.94-37.85-5.16-11.36-10.09-22-14.79-31.91-.46-.97-1.31-1.67-2.34-1.96l-7.8-2.17c-2.08-.58-4.21.75-4.61,2.87l-16.04,84.64c-.33,1.74-1.85,3-3.63,3h-24.2c-2.33,0-4.07-2.13-3.62-4.41l48.57-243.56c.42-2.1-1.03-4.11-3.15-4.38l-18.71-2.4c-1.84-.24-3.22-1.8-3.22-3.66v-3.55c0-1.48.86-2.82,2.22-3.4,6.7-2.82,14.63-5.39,23.82-7.72,9.8-2.48,18.87-4,27.21-4.55.69-.05,1.37.11,1.98.43l4.37,2.29c1.45.76,2.23,2.39,1.91,4l-33.28,165.32c-.46,2.28,1.29,4.42,3.62,4.42h5.12c.71,0,1.39-.19,1.99-.57,4.89-3.09,9.94-6.84,15.16-11.25,5.54-4.67,10.83-9.47,15.88-14.4,5.04-4.92,9.54-9.66,13.48-14.22,3.63-4.2,6.54-7.83,8.71-10.89.36-.5.57-1.04.64-1.65.19-1.61.33-3.64.44-6.11.12-2.95.12-5.97,0-9.05-.13-3.07-.25-6.03-.37-8.86-.06-1.37-.14-2.58-.22-3.63-.14-1.69.92-3.28,2.53-3.79,8.1-2.56,16.01-3.84,23.72-3.84,7.24,0,13.49,1.07,18.76,3.2,1.91.78,2.86,3,2.01,4.88-3.17,7.03-7.63,14.06-13.38,21.09-6.65,8.12-13.79,15.69-21.42,22.71-7.63,7.01-15.14,13.42-22.53,19.2-6.19,4.85-11.35,8.8-15.46,11.83-1.36,1-1.85,2.77-1.22,4.34,1.72,4.25,4.14,9.45,7.27,15.59,3.81,7.51,8,15.32,12.56,23.45,4.55,8.12,9.35,16.01,14.4,23.63,4.61,6.97,8.86,12.82,12.75,17.52.7.85,1.73,1.31,2.83,1.31h17.84c2.04,0,3.69,1.65,3.69,3.69v4.08c0,1.16-.53,2.27-1.45,2.96-4.52,3.43-9.39,6.25-14.61,8.47-5.79,2.46-11.88,3.69-18.28,3.69-5.91,0-11.21-1.36-15.88-4.06-4.68-2.71-9.11-7.63-13.29-14.77Z"/>
    </g>
  </g>
  <g>
    <path class="cls-1" d="M21.09,159.66c-11.63,0-21.09,9.46-21.09,21.09s9.46,21.09,21.09,21.09,21.09-9.46,21.09-21.09-9.46-21.09-21.09-21.09Z"/>
    <path class="cls-1" d="M158.57,113.51c10.07,5.82,23,2.36,28.81-7.72,5.82-10.07,2.35-23-7.72-28.81-10.07-5.81-22.99-2.35-28.81,7.72-5.82,10.07-2.36,22.99,7.72,28.81Z"/>
    <path class="cls-1" d="M158.57,247.96c-10.07,5.81-13.53,18.74-7.72,28.81,5.82,10.07,18.74,13.54,28.81,7.72,10.07-5.82,13.54-18.74,7.72-28.81-5.82-10.07-18.74-13.53-28.81-7.72Z"/>
    <path class="cls-1" d="M244.78,165.15h-.01v-.04c-73.78-22.39-117.69-47.75-173.98-100.47l-27.03,15.65c17.51,75.11,17.51,125.8,0,200.92l27.03,15.62c56.29-52.72,100.2-78.07,173.99-100.47v-.04s0,0,0,0v-31.17ZM84.68,241.55c6.34-42.08,6.34-79.55,0-121.64,33.28,26.53,65.73,45.27,105.35,60.82-39.62,15.55-72.07,34.29-105.34,60.82Z"/>
  </g>
</svg>
