<?xml version="1.0" encoding="UTF-8"?>
<svg id="Layer_1" data-name="Layer 1" xmlns="http://www.w3.org/2000/svg" viewBox="0 0 512.31 85.85">
  <defs>
    <style>.cls-1{fill:#2d2d2b;}</style>
  </defs>
  <g>
    <path class="cls-1" d="M315.38,84.34h-9.35l-7.59-44.97-23.02,44.97h-9.69l-4.67-59.11h9.69l3.16,44.86,22.54-44.15h8.06l7.48,44.38,19.51-45.09h10.28l-26.39,59.11Z"/>
    <path class="cls-1" d="M368.22,85.85c-6.89,0-13.32-2.8-17.52-7.82-3.62-4.32-5.73-10.4-5.73-16.82,0-17.76,9.35-37.5,29.79-37.5,6.9,0,13.32,2.81,17.52,7.83,3.62,4.32,5.73,10.4,5.73,16.82,0,17.75-9.34,37.49-29.79,37.49ZM373.95,32.24c-14.02,0-18.8,17.41-18.8,28.74,0,8.64,4.2,16.35,13.9,16.35,14.02,0,18.81-17.41,18.81-28.73,0-8.65-4.21-16.35-13.91-16.35Z"/>
    <path class="cls-1" d="M449.44,35.04c-1.86-.7-3.61-1.05-6.19-1.05-4.08,0-7.48,1.52-10.27,3.62-5.37,4.09-8.07,10.86-9.46,18.46l-5.02,28.27h-9.93l10.4-59.11h8.06v8.53c3.86-6.31,10.63-9.23,17.41-9.23,2.23,0,4.56.23,6.66.82l-1.64,9.7Z"/>
    <path class="cls-1" d="M486.85,48.83l17.28,35.51h-10.62l-14.02-28.73-13.32,12.5-2.92,16.24h-9.93L468.28,0h9.93l-9.58,54.31,31.19-29.09h12.5s-10.75,9.93-25.46,23.6Z"/>
  </g>
  <g>
    <path class="cls-1" d="M30.69,73.7c-5.41,0-8.06-3.25-8.06-9.87v-29.61h15.77v-11.07h-15.77V6.68l-12.52,7.22v9.25H0v11.07h10.11v28.88c0,14.32,7.82,21.66,19.86,21.66,3.49,0,6.74-.72,9.75-2.17l-3.25-10.59c-1.81,1.08-3.73,1.69-5.78,1.69Z"/>
    <path class="cls-1" d="M129.26,22.19c-11.55,0-20.34,6.5-22.87,16.73-.36,1.38-.27,2.41-.27,2.41h11.71c2.05-5.42,5.78-8.06,11.31-8.06,6.86,0,11.94,3.37,11.94,10.59v2.65h-10.61c-15.77,0-26.24,7.46-26.24,19.86s7.94,18.41,18.65,18.41c8.3,0,14.56-3.01,18.77-8.91v7.94h11.8s0,0,0,0v-37.67c0-16.01-8.07-23.95-24.19-23.95ZM141.07,58.3c0,4.93-1.71,8.66-4.95,11.43-3.13,2.65-6.86,3.97-11.07,3.97-4.94,0-7.58-3.01-7.58-7.34,0-5.78,4.81-9.39,12.52-9.39h11.09v1.32Z"/>
    <path class="cls-1" d="M245.45,38.19h0c-.6-2.98-1.71-5.69-3.31-8.04-1.62-2.38-3.86-4.33-6.67-5.77-2.81-1.44-6.43-2.17-10.77-2.17-3.43,0-6.86.89-10.2,2.64-2.84,1.49-5.18,3.63-6.94,6.38-1.69-2.73-3.78-4.86-6.21-6.35-2.9-1.77-6.51-2.67-10.72-2.67-2.55,0-4.92.39-7.04,1.15-2.09.75-3.95,1.68-5.51,2.75-1.56,1.08-2.86,2.24-3.87,3.45-.02.02-.04.04-.05.06v-6.46h-11.8v60.66h12.38v-33.69c0-2.92.37-5.48,1.09-7.61.71-2.11,1.68-3.85,2.88-5.19,1.19-1.33,2.58-2.33,4.15-2.99,1.58-.67,3.23-1,4.91-1,2.31,0,4.15.39,5.47,1.17,1.31.77,2.33,1.86,3.03,3.24.74,1.45,1.24,3.2,1.49,5.2.26,2.08.39,4.42.39,6.96v33.92h12.38v-35.18c0-4.56,1.01-8.32,3.01-11.18,1.92-2.74,5.21-4.13,9.78-4.13,2.31,0,4.18.4,5.54,1.18,1.36.78,2.42,1.83,3.16,3.11.77,1.32,1.28,2.89,1.53,4.65.26,1.86.39,3.81.39,5.8v35.75h12.38v-36.55c0-3.1-.3-6.15-.88-9.07Z"/>
    <path class="cls-1" d="M70.47,22.19c-19.98,0-28.28,16.85-28.28,31.29s8.3,31.29,28.28,31.29c12.73,0,19.78-4.72,25.73-15.47h0s-9.89-5.72-9.89-5.72c-3.03,6.31-9.13,10.12-15.83,10.12-9.51,0-15.04-7.22-15.04-16.73h42.97v-5.42c0-13.6-8.55-29.37-27.92-29.37ZM55.67,46.5c1.44-7.82,6.74-13.24,14.8-13.24,8.55,0,13.6,5.66,14.68,13.24h-29.49Z"/>
  </g>
</svg>
