<svg xmlns="http://www.w3.org/2000/svg" viewBox="0 0 210 219">
  <path fill="#282727" d="M17.66,103.8c-9.74,0-17.66,7.92-17.66,17.66s7.92,17.66,17.66,17.66,17.66-7.92,17.66-17.66-7.92-17.66-17.66-17.66Z"/>
  <path fill="#282727" d="M132.8,65.15c8.44,4.87,19.26,1.97,24.13-6.46s1.97-19.26-6.47-24.13c-8.43-4.87-19.25-1.97-24.13,6.47-4.87,8.44-1.97,19.26,6.46,24.13Z"/>
  <path fill="#282727" d="M132.8,177.74c-8.43,4.87-11.33,15.69-6.46,24.13s15.69,11.34,24.13,6.47c8.44-4.87,11.34-15.69,6.47-24.13s-15.69-11.33-24.13-6.46Z"/>
  <path fill="#282727" d="M205,108.39h-.01v-.03c-61.79-18.75-98.56-39.99-145.71-84.14l-22.64,13.11c14.66,62.9,14.66,105.36,0,168.26l22.64,13.08c47.15-44.15,83.92-65.38,145.72-84.14v-.03s0,0,0,0v-26.1ZM70.91,172.38c5.31-35.24,5.31-66.63,0-101.87,27.87,22.22,55.05,37.91,88.23,50.94-33.18,13.02-60.36,28.71-88.22,50.93Z"/>
</svg>
